<svg width="200" height="200" viewBox="0 0 200 200" xmlns="http://www.w3.org/2000/svg"><title>Gatekeeper Logo</title><g fill="none" fill-rule="evenodd"><circle stroke="#F6993F" stroke-width="8" cx="100" cy="100" r="96"/><path d="M93.536 51.048c-7.297 2.409-12.551 7.006-16.127 14.157-4.524 9.049-2.554 20.36 4.89 27.803 2.188 2.116 4.523 4.232 5.18 4.597 1.24.657.949 2.627-3.21 23.206-2.482 12.405-5.14 28.037-4.525 29.189h42.042c.692-.736-2.71-16.71-5.264-29.116-4.086-20.506-4.378-22.695-3.21-23.279.656-.365 2.992-2.48 5.18-4.597 7.444-7.443 9.414-18.754 4.89-27.803-4.743-9.56-12.915-15.036-22.987-15.036-3.38 0-5.837.515-6.86.88zm14.303 7.517c3.575 1.24 8.173 5.91 9.997 10.143.657 1.532 1.168 4.67 1.095 6.932-.073 7.444-3.65 13.209-10.217 16.565-2.043 1.022-3.721 2.408-3.721 2.992 0 1.022 7.954 42.179 8.975 46.192l.365 1.679h-13.865c-7.589 0-13.865-.073-13.865-.22 0-.145 2.044-10.362 4.598-22.694 2.554-12.26 4.597-23.205 4.597-24.227 0-1.46-.803-2.262-3.722-3.722C85.51 88.85 81.933 83.084 81.86 75.64c-.073-4.962 1.314-8.61 4.743-12.478 5.328-6.057 12.625-7.662 21.236-4.597z" fill="#F6993F" fill-rule="nonzero"/></g></svg>